<svg xmlns="http://www.w3.org/2000/svg" 
viewBox="0 0 92.4 118.84"><defs>
<style>.cls-1{fill:#57CC99;}.cls-2{font-size:27.3px;fill:#fff;font-family:MyriadPro-Regular, Myriad Pro;}.cls-3{letter-spacing:-0.01em;}.cls-4{letter-spacing:-0.01em;}</style></defs><g id="Layer_2" data-name="Layer 2"><g id="Layer_2-2" data-name="Layer 2"><path class="cls-1" d="M68.44,65.25A22.67,22.67,0,0,1,45.76,87.93a22.43,22.43,0,0,1-4-.35V42.92a22.43,22.43,0,0,1,4-.35A22.67,22.67,0,0,1,68.44,65.25Z"/><path class="cls-1" d="M53.48,24.2A13.44,13.44,0,0,1,41.8,37.52V10.88A13.44,13.44,0,0,1,53.48,24.2Z"/><path class="cls-1" d="M42,8c-.55-.62.39-3.31,1.63-5.09S47-.5,47.52.16s-.6,3.72-2.14,5.64C44.26,7.2,42.49,8.56,42,8Z"/><text class="cls-2" transform="translate(0 112.01)"><tspan class="cls-3" x="43.39" y="0"></tspan><tspan x="55.46" y="0"></tspan><tspan 
class="cls-4" x="70.45" y="0"></tspan>
<tspan x="79.24" y="0"></tspan></text>
</g></g></svg>